<?xml version="1.0" standalone="no"?>
<!DOCTYPE svg PUBLIC "-//W3C//DTD SVG 20010904//EN"
 "http://www.w3.org/TR/2001/REC-SVG-20010904/DTD/svg10.dtd">
<svg version="1.0" xmlns="http://www.w3.org/2000/svg"
 width="2400.000000pt" height="811.000000pt" viewBox="0 0 2400.000000 811.000000"
 preserveAspectRatio="xMidYMid meet">

<g transform="translate(0.000000,811.000000) scale(0.100000,-0.100000)"
fill="" stroke="none">
<path d="M3635 7734 c-16 -2 -73 -9 -125 -15 -487 -54 -987 -263 -1410 -589
-125 -96 -396 -369 -491 -495 -302 -398 -484 -827 -554 -1307 -23 -152 -30
-439 -16 -598 41 -461 195 -898 450 -1282 120 -180 201 -279 356 -434 652
-656 1553 -948 2490 -808 588 87 1068 335 1475 760 400 418 613 966 645 1664
7 137 -6 384 -26 498 l-11 62 -1284 0 -1284 0 2 -377 3 -378 908 -3 c715 -2
907 -5 907 -15 0 -61 -56 -296 -101 -424 -116 -328 -340 -590 -684 -798 -445
-269 -1083 -338 -1620 -173 -521 159 -955 531 -1196 1023 -138 284 -197 525
-206 846 -11 377 57 687 223 1009 198 385 488 674 869 865 648 325 1415 281
2001 -114 65 -44 153 -109 194 -145 l75 -65 268 267 268 267 -68 64 c-316 294
-729 518 -1146 621 -224 54 -365 71 -637 75 -135 2 -258 1 -275 -1z"/>
<path d="M18430 4910 l0 -2630 385 0 385 0 0 2630 0 2630 -385 0 -385 0 0
-2630z"/>
<path d="M8376 5749 c-642 -68 -1174 -437 -1440 -999 -132 -279 -193 -620
-167 -926 22 -259 78 -461 187 -679 213 -428 600 -754 1059 -892 126 -37 200
-53 334 -68 646 -76 1280 190 1658 695 358 477 452 1124 248 1710 -47 135
-138 309 -223 430 -86 122 -280 316 -402 403 -118 83 -341 195 -480 241 -242
80 -526 111 -774 85z m357 -714 c418 -73 730 -393 819 -840 28 -144 22 -389
-15 -526 -72 -272 -220 -484 -441 -630 -105 -69 -214 -114 -346 -141 -123 -26
-314 -21 -435 12 -476 128 -786 581 -761 1110 14 296 109 527 297 725 146 154
369 269 574 298 72 10 229 6 308 -8z"/>
<path d="M12258 5749 c-284 -27 -599 -138 -826 -291 -400 -269 -656 -654 -754
-1138 -20 -101 -23 -144 -23 -355 0 -211 3 -254 23 -354 112 -552 441 -990
932 -1240 438 -222 944 -260 1424 -104 138 44 352 153 476 241 122 86 316 280
402 402 141 199 248 450 299 700 21 102 24 142 24 350 0 263 -11 348 -71 546
-245 815 -1031 1327 -1906 1243z m359 -714 c211 -40 376 -126 524 -274 332
-332 412 -876 194 -1316 -129 -262 -351 -449 -630 -532 -80 -23 -107 -26 -250
-27 -174 -1 -246 11 -378 65 -426 172 -688 637 -637 1131 51 497 367 861 826
952 94 19 255 19 351 1z"/>
<path d="M16125 5754 c-16 -2 -66 -9 -110 -15 -532 -72 -1047 -458 -1300 -974
-128 -263 -185 -509 -185 -805 0 -492 182 -933 530 -1280 488 -488 1205 -643
1756 -381 129 62 208 115 304 208 43 40 83 73 90 73 19 0 7 -404 -15 -525 -74
-411 -285 -655 -650 -751 -88 -23 -120 -27 -265 -28 -183 -1 -243 10 -376 65
-208 87 -410 280 -515 495 -18 35 -36 64 -40 64 -5 0 -145 -57 -312 -126 -166
-69 -317 -132 -335 -140 l-32 -13 24 -56 c130 -292 403 -596 691 -767 298
-177 637 -253 1020 -227 335 22 635 119 874 282 113 77 294 263 374 382 142
216 235 470 282 770 30 199 36 541 33 2100 l-3 1540 -372 3 -373 2 0 -145 c0
-121 -2 -145 -15 -145 -8 0 -45 30 -82 66 -155 152 -389 266 -628 309 -89 16
-312 27 -370 19z m335 -715 c172 -27 338 -111 472 -238 150 -143 250 -318 306
-540 24 -97 27 -123 27 -301 0 -178 -3 -204 -27 -300 -82 -325 -264 -561 -532
-689 -127 -62 -202 -81 -343 -88 -509 -26 -936 337 -1030 872 -24 138 -14 378
21 510 29 106 103 273 156 350 160 232 402 385 680 428 53 9 208 6 270 -4z"/>
<path d="M21040 5750 c-633 -73 -1142 -466 -1380 -1065 -129 -325 -164 -755
-90 -1110 93 -452 359 -852 730 -1099 271 -181 527 -268 870 -298 613 -52
1201 215 1583 719 26 34 47 64 47 67 0 3 -136 97 -302 207 l-302 202 -31 -38
c-161 -205 -278 -301 -462 -380 -204 -88 -512 -99 -723 -27 -151 52 -298 154
-395 272 -61 74 -147 213 -137 221 4 4 122 54 262 112 140 58 469 194 730 302
261 108 682 282 935 387 253 105 461 191 462 192 4 4 -130 323 -166 395 -151
298 -355 534 -603 698 -248 163 -496 240 -803 248 -82 2 -184 0 -225 -5z m483
-730 c116 -39 221 -104 289 -180 48 -53 106 -146 96 -155 -3 -3 -1444 -604
-1552 -646 l-49 -20 6 98 c7 107 26 208 55 293 168 484 697 763 1155 610z"/>
</g>
</svg>
